<?xml version="1.0" standalone="no"?>
<!DOCTYPE svg PUBLIC "-//W3C//DTD SVG 20010904//EN"
 "http://www.w3.org/TR/2001/REC-SVG-20010904/DTD/svg10.dtd">
<svg version="1.0" xmlns="http://www.w3.org/2000/svg" width="512.000000pt" height="512.000000pt" viewBox="0 0 512.000000 512.000000" preserveAspectRatio="xMidYMid meet">

<g transform="translate(0.000000,512.000000) scale(0.100000,-0.100000)" fill="#000000" stroke="none">
<path d="M933 4678 c-31 -15 -46 -60 -41 -120 6 -57 32 -88 74 -88 45 0 64 32
64 109 0 63 -2 71 -26 90 -30 23 -39 24 -71 9z"></path>
<path d="M560 4522 c-30 -9 -50 -36 -50 -67 0 -26 10 -42 50 -79 56 -52 80
-57 115 -21 37 36 32 66 -18 117 -43 45 -70 59 -97 50z"></path>
<path d="M1324 4515 c-43 -18 -94 -80 -94 -115 0 -32 39 -70 73 -70 11 0 42
22 68 49 37 36 49 56 49 78 0 50 -47 79 -96 58z"></path>
<path d="M899 4365 c-65 -13 -115 -42 -162 -95 -56 -61 -70 -96 -75 -188 -4
-77 -2 -87 27 -147 58 -117 166 -181 291 -172 82 5 146 33 200 87 64 64 85
118 85 220 0 69 -4 93 -23 128 -71 133 -200 196 -343 167z m141 -150 c119 -61
119 -232 0 -293 -145 -75 -295 75 -224 224 37 78 141 110 224 69z"></path>
<path d="M3609 4296 c-99 -26 -183 -97 -236 -198 -25 -48 -28 -63 -28 -158 0
-93 3 -111 27 -163 35 -73 117 -156 196 -196 l61 -31 317 0 316 0 54 36 c135
90 187 230 138 376 -23 70 -109 158 -178 181 -62 21 -142 22 -201 1 l-47 -15
-51 48 c-66 63 -127 98 -202 117 -70 19 -104 19 -166 2z m157 -142 c38 -13 68
-36 131 -100 45 -45 91 -85 103 -89 13 -4 38 4 74 24 93 54 176 36 233 -48 17
-24 23 -48 23 -85 0 -59 -22 -101 -73 -140 l-34 -26 -284 0 -285 0 -45 28
c-87 56 -129 126 -129 217 0 96 51 177 135 216 50 23 87 24 151 3z"></path>
<path d="M2130 4139 c-56 -11 -134 -49 -183 -89 -164 -136 -184 -411 -42 -569
21 -23 36 -43 34 -45 -2 -1 -22 -15 -43 -29 l-39 -26 -22 47 c-12 26 -44 67
-70 90 -142 125 -356 79 -441 -94 -24 -49 -26 -62 -22 -136 5 -76 3 -83 -19
-102 -21 -19 -29 -54 -84 -376 -66 -391 -69 -432 -26 -516 52 -101 141 -158
252 -158 39 -1 85 3 103 7 l32 9 0 -192 0 -191 -116 -227 c-116 -226 -117
-228 -117 -297 0 -41 7 -86 16 -107 l16 -38 -58 0 c-65 0 -13 32 -589 -360
-276 -189 -302 -212 -287 -259 9 -30 58 -53 87 -42 13 5 192 124 398 265 l375
256 625 0 626 0 295 270 294 270 369 0 369 0 36 38 c20 22 164 215 321 429
l285 391 112 3 c99 4 115 7 134 26 26 26 28 67 4 93 -16 18 -32 20 -165 20
-139 0 -148 -1 -167 -22 -11 -13 -154 -206 -319 -431 l-298 -407 -175 2 -174
3 -150 523 -150 523 31 32 c17 17 36 45 41 60 15 39 14 121 -2 160 -18 41 -88
105 -124 112 -16 4 -35 10 -43 14 -8 4 -40 97 -76 220 -63 218 -74 240 -122
241 -25 0 -72 -41 -72 -62 0 -7 25 -98 55 -202 30 -104 55 -191 55 -193 0 -2
-35 -3 -77 -3 l-78 0 -163 162 c-148 147 -161 164 -145 175 204 146 236 432
69 611 -96 103 -237 148 -376 121z m186 -154 c17 -7 50 -29 72 -49 109 -99
113 -274 10 -378 -109 -108 -278 -103 -381 12 -159 177 -18 458 217 434 27 -3
64 -11 82 -19z m-666 -556 c53 -30 74 -73 68 -138 -14 -146 -212 -177 -268
-41 -16 39 -8 115 16 142 53 59 120 73 184 37z m607 -111 c51 -18 80 -43 244
-205 l186 -183 187 0 c173 0 187 -1 206 -20 11 -11 20 -33 20 -50 0 -17 -9
-39 -20 -50 -19 -19 -33 -20 -347 -20 l-328 1 -110 99 c-91 83 -115 100 -142
100 -53 0 -85 -49 -61 -93 7 -13 57 -63 111 -111 80 -73 97 -93 97 -117 0 -35
-15 -42 -145 -70 -56 -13 -151 -22 -252 -26 l-163 -6 0 25 c0 71 91 498 120
564 34 78 114 149 200 175 50 15 138 9 197 -13z m-715 -293 c58 -10 111 -21
117 -24 7 -5 2 -52 -19 -153 -16 -80 -41 -231 -56 -335 -24 -176 -28 -189 -52
-210 -32 -28 -79 -38 -129 -28 -49 9 -109 69 -118 117 -5 25 9 134 44 342 28
168 51 308 51 312 0 3 12 4 28 1 15 -3 75 -13 134 -22z m1625 -875 c78 -272
142 -498 143 -502 0 -5 -47 -8 -105 -8 -88 0 -105 3 -105 15 0 31 -42 98 -191
299 -185 252 -239 305 -393 379 l-112 55 17 124 c10 67 18 126 18 131 1 4 132
6 293 5 l292 -3 143 -495z m-903 250 c-5 -59 -3 -84 6 -96 8 -8 77 -46 154
-84 97 -47 155 -81 186 -112 53 -51 335 -433 351 -474 15 -41 3 -86 -32 -120
-25 -24 -39 -29 -78 -29 -28 0 -55 6 -66 15 -9 8 -84 96 -165 195 -122 149
-160 189 -224 233 -138 96 -271 144 -443 162 -135 14 -185 36 -224 98 -31 48
-36 97 -23 194 l6 45 182 6 c124 4 208 12 266 25 47 11 91 20 98 21 11 1 12
-16 6 -79z m-512 -411 c24 -12 78 -25 134 -32 l94 -11 0 -144 0 -143 -125
-248 c-73 -145 -137 -259 -154 -275 -24 -23 -42 -30 -83 -33 -63 -5 -108 18
-134 69 -32 61 -24 89 100 336 l116 233 0 135 c0 74 2 134 5 134 3 0 24 -9 47
-21z m483 -125 c99 -47 127 -73 292 -276 92 -114 162 -190 189 -208 l43 -27
-139 -126 -138 -127 -315 0 -314 0 131 253 131 252 3 153 c4 176 -8 166 117
106z"></path>
<path d="M382 4128 c-37 -18 -45 -76 -15 -110 24 -27 146 -25 173 2 27 27 25
66 -5 95 -20 21 -34 25 -77 24 -29 0 -63 -5 -76 -11z"></path>
<path d="M1396 4119 c-19 -15 -26 -30 -26 -54 0 -48 29 -65 107 -65 73 0 103
20 103 69 0 44 -40 71 -105 71 -38 0 -60 -6 -79 -21z"></path>
<path d="M554 3756 c-36 -35 -44 -50 -44 -79 0 -40 27 -67 69 -67 34 0 121 89
121 124 0 35 -33 66 -71 66 -24 0 -42 -11 -75 -44z"></path>
<path d="M1250 3780 c-34 -34 -26 -70 28 -123 53 -53 89 -60 122 -27 34 34 26
70 -28 123 -53 53 -89 60 -122 27z"></path>
<path d="M910 3633 c-18 -23 -21 -38 -18 -85 5 -67 27 -98 70 -98 49 0 68 30
68 108 0 54 -4 72 -18 85 -29 27 -77 22 -102 -10z"></path>
</g>
</svg>
